<?xml version="1.0" encoding="UTF-8" standalone="no"?>
<svg
   xmlns:ooo="http://xml.openoffice.org/svg/export"
   xmlns:dc="http://purl.org/dc/elements/1.1/"
   xmlns:cc="http://creativecommons.org/ns#"
   xmlns:rdf="http://www.w3.org/1999/02/22-rdf-syntax-ns#"
   xmlns:svg="http://www.w3.org/2000/svg"
   xmlns="http://www.w3.org/2000/svg"
   xmlns:sodipodi="http://sodipodi.sourceforge.net/DTD/sodipodi-0.dtd"
   xmlns:inkscape="http://www.inkscape.org/namespaces/inkscape"
   version="1.2"
   width="53.292221mm"
   height="94.292221mm"
   viewBox="0 0 5329.2223 9429.2223"
   preserveAspectRatio="xMidYMid"
   xml:space="preserve"
   id="svg212"
   sodipodi:docname="simple_graph.svg"
   style="fill-rule:evenodd;stroke-width:28.22200012;stroke-linejoin:round"
   inkscape:version="0.92.5 (2060ec1f9f, 2020-04-08)"><metadata
   id="metadata216"><rdf:RDF><cc:Work
       rdf:about=""><dc:format>image/svg+xml</dc:format><dc:type
         rdf:resource="http://purl.org/dc/dcmitype/StillImage" /><dc:title></dc:title></cc:Work></rdf:RDF></metadata><sodipodi:namedview
   pagecolor="#ffffff"
   bordercolor="#666666"
   borderopacity="1"
   objecttolerance="10"
   gridtolerance="10"
   guidetolerance="10"
   inkscape:pageopacity="0"
   inkscape:pageshadow="2"
   inkscape:window-width="888"
   inkscape:window-height="962"
   id="namedview214"
   showgrid="false"
   fit-margin-top="0"
   fit-margin-left="0"
   fit-margin-right="0"
   fit-margin-bottom="0"
   inkscape:zoom="0.89393941"
   inkscape:cx="79.619157"
   inkscape:cy="197.72658"
   inkscape:window-x="464"
   inkscape:window-y="169"
   inkscape:window-maximized="0"
   inkscape:current-layer="svg212" />
 <defs
   class="ClipPathGroup"
   id="defs8">
  <clipPath
   id="presentation_clip_path"
   clipPathUnits="userSpaceOnUse">
   <rect
   x="0"
   y="0"
   width="21590"
   height="27940"
   id="rect2" />
  </clipPath>
  <clipPath
   id="presentation_clip_path_shrink"
   clipPathUnits="userSpaceOnUse">
   <rect
   x="21"
   y="27"
   width="21547"
   height="27885"
   id="rect5" />
  </clipPath>
 </defs>
 <defs
   class="TextShapeIndex"
   id="defs12">
  <g
   ooo:slide="id1"
   ooo:id-list="id3 id4 id5 id6 id7 id8 id9 id10 id11 id12 id13 id14 id15 id16 id17 id18 id19"
   id="g10" />
 </defs>
 <defs
   class="EmbeddedBulletChars"
   id="defs44">
  <g
   id="bullet-char-template-57356"
   transform="matrix(4.8828125e-4,0,0,-4.8828125e-4,0,0)">
   <path
   d="M 580,1141 1163,571 580,0 -4,571 Z"
   id="path14"
   inkscape:connector-curvature="0" />
  </g>
  <g
   id="bullet-char-template-57354"
   transform="matrix(4.8828125e-4,0,0,-4.8828125e-4,0,0)">
   <path
   d="M 8,1128 H 1137 V 0 H 8 Z"
   id="path17"
   inkscape:connector-curvature="0" />
  </g>
  <g
   id="bullet-char-template-10146"
   transform="matrix(4.8828125e-4,0,0,-4.8828125e-4,0,0)">
   <path
   d="M 174,0 602,739 174,1481 1456,739 Z M 1358,739 309,1346 659,739 Z"
   id="path20"
   inkscape:connector-curvature="0" />
  </g>
  <g
   id="bullet-char-template-10132"
   transform="matrix(4.8828125e-4,0,0,-4.8828125e-4,0,0)">
   <path
   d="M 2015,739 1276,0 H 717 l 543,543 H 174 v 393 h 1086 l -543,545 h 557 z"
   id="path23"
   inkscape:connector-curvature="0" />
  </g>
  <g
   id="bullet-char-template-10007"
   transform="matrix(4.8828125e-4,0,0,-4.8828125e-4,0,0)">
   <path
   d="m 0,-2 c -7,16 -16,29 -25,39 l 381,530 c -94,256 -141,385 -141,387 0,25 13,38 40,38 9,0 21,-2 34,-5 21,4 42,12 65,25 l 27,-13 111,-251 280,301 64,-25 24,25 c 21,-10 41,-24 62,-43 C 886,937 835,863 770,784 769,783 710,716 594,584 L 774,223 c 0,-27 -21,-55 -63,-84 l 16,-20 C 717,90 699,76 672,76 641,76 570,178 457,381 L 164,-76 c -22,-34 -53,-51 -92,-51 -42,0 -63,17 -64,51 -7,9 -10,24 -10,44 0,9 1,19 2,30 z"
   id="path26"
   inkscape:connector-curvature="0" />
  </g>
  <g
   id="bullet-char-template-10004"
   transform="matrix(4.8828125e-4,0,0,-4.8828125e-4,0,0)">
   <path
   d="M 285,-33 C 182,-33 111,30 74,156 52,228 41,333 41,471 c 0,78 14,145 41,201 34,71 87,106 158,106 53,0 88,-31 106,-94 l 23,-176 c 8,-64 28,-97 59,-98 l 735,706 c 11,11 33,17 66,17 42,0 63,-15 63,-46 V 965 c 0,-36 -10,-64 -30,-84 L 442,47 C 390,-6 338,-33 285,-33 Z"
   id="path29"
   inkscape:connector-curvature="0" />
  </g>
  <g
   id="bullet-char-template-9679"
   transform="matrix(4.8828125e-4,0,0,-4.8828125e-4,0,0)">
   <path
   d="M 813,0 C 632,0 489,54 383,161 276,268 223,411 223,592 c 0,181 53,324 160,431 106,107 249,161 430,161 179,0 323,-54 432,-161 108,-107 162,-251 162,-431 0,-180 -54,-324 -162,-431 C 1136,54 992,0 813,0 Z"
   id="path32"
   inkscape:connector-curvature="0" />
  </g>
  <g
   id="bullet-char-template-8226"
   transform="matrix(4.8828125e-4,0,0,-4.8828125e-4,0,0)">
   <path
   d="m 346,457 c -73,0 -137,26 -191,78 -54,51 -81,114 -81,188 0,73 27,136 81,188 54,52 118,78 191,78 73,0 134,-26 185,-79 51,-51 77,-114 77,-187 0,-75 -25,-137 -76,-188 -50,-52 -112,-78 -186,-78 z"
   id="path35"
   inkscape:connector-curvature="0" />
  </g>
  <g
   id="bullet-char-template-8211"
   transform="matrix(4.8828125e-4,0,0,-4.8828125e-4,0,0)">
   <path
   d="M -4,459 H 1135 V 606 H -4 Z"
   id="path38"
   inkscape:connector-curvature="0" />
  </g>
  <g
   id="bullet-char-template-61548"
   transform="matrix(4.8828125e-4,0,0,-4.8828125e-4,0,0)">
   <path
   d="m 173,740 c 0,163 58,303 173,419 116,115 255,173 419,173 163,0 302,-58 418,-173 116,-116 174,-256 174,-419 0,-163 -58,-303 -174,-418 C 1067,206 928,148 765,148 601,148 462,206 346,322 231,437 173,577 173,740 Z"
   id="path41"
   inkscape:connector-curvature="0" />
  </g>
 </defs>
 <g
   id="g49"
   transform="translate(-2285.889,-2985.889)">
  <g
   id="id2"
   class="Master_Slide">
   <g
   id="bg-id2"
   class="Background" />
   <g
   id="bo-id2"
   class="BackgroundObjects" />
  </g>
 </g>
 <g
   class="SlideGroup"
   id="g210"
   transform="translate(-2285.889,-2985.889)">
  <g
   id="g208">
   <g
   id="container-id1">
    <g
   id="id1"
   class="Slide"
   clip-path="url(#presentation_clip_path)">
     <g
   class="Page"
   id="g204">
      <g
   class="com.sun.star.drawing.CustomShape"
   id="g58">
       <g
   id="id3">
        <rect
   class="BoundingBox"
   x="3699"
   y="2999"
   width="1304"
   height="1304"
   id="rect51"
   style="fill:none;stroke:none" />
        <path
   d="m 5001,3651 c 0,114 -30,226 -87,325 -57,99 -139,181 -238,238 -99,57 -211,87 -325,87 -115,0 -227,-30 -326,-87 -99,-57 -181,-139 -238,-238 -57,-99 -87,-211 -87,-325 0,-115 30,-227 87,-326 57,-99 139,-181 238,-238 99,-57 211,-87 325,-87 115,0 227,30 326,87 99,57 181,139 238,238 57,99 87,211 87,325 z"
   id="path53"
   inkscape:connector-curvature="0"
   style="fill:#f6f9d4;stroke:none" />
        <path
   d="m 5001,3651 c 0,114 -30,226 -87,325 -57,99 -139,181 -238,238 -99,57 -211,87 -325,87 -115,0 -227,-30 -326,-87 -99,-57 -181,-139 -238,-238 -57,-99 -87,-211 -87,-325 0,-115 30,-227 87,-326 57,-99 139,-181 238,-238 99,-57 211,-87 325,-87 115,0 227,30 326,87 99,57 181,139 238,238 57,99 87,211 87,325 z"
   id="path55"
   inkscape:connector-curvature="0"
   style="fill:none;stroke:#3465a4" />
       </g>
      </g>
      <g
   class="com.sun.star.drawing.CustomShape"
   id="g67">
       <g
   id="id4">
        <rect
   class="BoundingBox"
   x="6299"
   y="4799"
   width="1304"
   height="1304"
   id="rect60"
   style="fill:none;stroke:none" />
        <path
   d="m 7601,5451 c 0,114 -30,226 -87,325 -57,99 -139,181 -238,238 -99,57 -211,87 -325,87 -115,0 -227,-30 -326,-87 -99,-57 -181,-139 -238,-238 -57,-99 -87,-211 -87,-325 0,-115 30,-227 87,-326 57,-99 139,-181 238,-238 99,-57 211,-87 326,-87 114,0 226,30 325,87 99,57 181,139 238,238 57,99 87,211 87,325 z"
   id="path62"
   inkscape:connector-curvature="0"
   style="fill:#f6f9d4;stroke:none" />
        <path
   d="m 7601,5451 c 0,114 -30,226 -87,325 -57,99 -139,181 -238,238 -99,57 -211,87 -325,87 -115,0 -227,-30 -326,-87 -99,-57 -181,-139 -238,-238 -57,-99 -87,-211 -87,-325 0,-115 30,-227 87,-326 57,-99 139,-181 238,-238 99,-57 211,-87 326,-87 114,0 226,30 325,87 99,57 181,139 238,238 57,99 87,211 87,325 z"
   id="path64"
   inkscape:connector-curvature="0"
   style="fill:none;stroke:#3465a4" />
       </g>
      </g>
      <g
   class="com.sun.star.drawing.CustomShape"
   id="g76">
       <g
   id="id5">
        <rect
   class="BoundingBox"
   x="2299"
   y="6099"
   width="1304"
   height="1304"
   id="rect69"
   style="fill:none;stroke:none" />
        <path
   d="m 3601,6751 c 0,114 -30,226 -87,325 -57,99 -139,181 -238,238 -99,57 -211,87 -325,87 -115,0 -227,-30 -326,-87 -99,-57 -181,-139 -238,-238 -57,-99 -87,-211 -87,-325 0,-115 30,-227 87,-326 57,-99 139,-181 238,-238 99,-57 211,-87 325,-87 115,0 227,30 326,87 99,57 181,139 238,238 57,99 87,211 87,325 z"
   id="path71"
   inkscape:connector-curvature="0"
   style="fill:#f6f9d4;stroke:none" />
        <path
   d="m 3601,6751 c 0,114 -30,226 -87,325 -57,99 -139,181 -238,238 -99,57 -211,87 -325,87 -115,0 -227,-30 -326,-87 -99,-57 -181,-139 -238,-238 -57,-99 -87,-211 -87,-325 0,-115 30,-227 87,-326 57,-99 139,-181 238,-238 99,-57 211,-87 325,-87 115,0 227,30 326,87 99,57 181,139 238,238 57,99 87,211 87,325 z"
   id="path73"
   inkscape:connector-curvature="0"
   style="fill:none;stroke:#3465a4" />
       </g>
      </g>
      <g
   class="com.sun.star.drawing.CustomShape"
   id="g85">
       <g
   id="id6">
        <rect
   class="BoundingBox"
   x="5399"
   y="7599"
   width="1304"
   height="1304"
   id="rect78"
   style="fill:none;stroke:none" />
        <path
   d="m 6701,8251 c 0,114 -30,226 -87,325 -57,99 -139,181 -238,238 -99,57 -211,87 -325,87 -115,0 -227,-30 -326,-87 -99,-57 -181,-139 -238,-238 -57,-99 -87,-211 -87,-325 0,-115 30,-227 87,-326 57,-99 139,-181 238,-238 99,-57 211,-87 325,-87 115,0 227,30 326,87 99,57 181,139 238,238 57,99 87,211 87,326 z"
   id="path80"
   inkscape:connector-curvature="0"
   style="fill:#f6f9d4;stroke:none" />
        <path
   d="m 6701,8251 c 0,114 -30,226 -87,325 -57,99 -139,181 -238,238 -99,57 -211,87 -325,87 -115,0 -227,-30 -326,-87 -99,-57 -181,-139 -238,-238 -57,-99 -87,-211 -87,-325 0,-115 30,-227 87,-326 57,-99 139,-181 238,-238 99,-57 211,-87 325,-87 115,0 227,30 326,87 99,57 181,139 238,238 57,99 87,211 87,326 z"
   id="path82"
   inkscape:connector-curvature="0"
   style="fill:none;stroke:#3465a4" />
       </g>
      </g>
      <g
   class="com.sun.star.drawing.CustomShape"
   id="g94">
       <g
   id="id7">
        <rect
   class="BoundingBox"
   x="3199"
   y="8499"
   width="1304"
   height="1304"
   id="rect87"
   style="fill:none;stroke:none" />
        <path
   d="m 4501,9151 c 0,114 -30,226 -87,325 -57,99 -139,181 -238,238 -99,57 -211,87 -325,87 -115,0 -227,-30 -326,-87 -99,-57 -181,-139 -238,-238 -57,-99 -87,-211 -87,-325 0,-115 30,-227 87,-326 57,-99 139,-181 238,-238 99,-57 211,-87 325,-87 115,0 227,30 326,87 99,57 181,139 238,238 57,99 87,211 87,326 z"
   id="path89"
   inkscape:connector-curvature="0"
   style="fill:#f6f9d4;stroke:none" />
        <path
   d="m 4501,9151 c 0,114 -30,226 -87,325 -57,99 -139,181 -238,238 -99,57 -211,87 -325,87 -115,0 -227,-30 -326,-87 -99,-57 -181,-139 -238,-238 -57,-99 -87,-211 -87,-325 0,-115 30,-227 87,-326 57,-99 139,-181 238,-238 99,-57 211,-87 325,-87 115,0 227,30 326,87 99,57 181,139 238,238 57,99 87,211 87,326 z"
   id="path91"
   inkscape:connector-curvature="0"
   style="fill:none;stroke:#3465a4" />
       </g>
      </g>
      <g
   class="com.sun.star.drawing.CustomShape"
   id="g103">
       <g
   id="id8">
        <rect
   class="BoundingBox"
   x="4799"
   y="11099"
   width="1304"
   height="1304"
   id="rect96"
   style="fill:none;stroke:none" />
        <path
   d="m 6101,11751 c 0,114 -30,226 -87,325 -57,99 -139,181 -238,238 -99,57 -211,87 -325,87 -115,0 -227,-30 -326,-87 -99,-57 -181,-139 -238,-238 -57,-99 -87,-211 -87,-325 0,-115 30,-227 87,-326 57,-99 139,-181 238,-238 99,-57 211,-87 325,-87 115,0 227,30 326,87 99,57 181,139 238,238 57,99 87,211 87,326 z"
   id="path98"
   inkscape:connector-curvature="0"
   style="fill:#f6f9d4;stroke:none" />
        <path
   d="m 6101,11751 c 0,114 -30,226 -87,325 -57,99 -139,181 -238,238 -99,57 -211,87 -325,87 -115,0 -227,-30 -326,-87 -99,-57 -181,-139 -238,-238 -57,-99 -87,-211 -87,-325 0,-115 30,-227 87,-326 57,-99 139,-181 238,-238 99,-57 211,-87 325,-87 115,0 227,30 326,87 99,57 181,139 238,238 57,99 87,211 87,326 z"
   id="path100"
   inkscape:connector-curvature="0"
   style="fill:none;stroke:#3465a4" />
       </g>
      </g>
      <g
   class="com.sun.star.drawing.ConnectorShape"
   id="g112">
       <g
   id="id9">
        <rect
   class="BoundingBox"
   x="4809"
   y="3189"
   width="2244"
   height="1612"
   id="rect105"
   style="fill:none;stroke:none" />
        <path
   d="m 4810,3190 c 1427,0 1922,394 2096,1183"
   id="path107"
   inkscape:connector-curvature="0"
   style="fill:none;stroke:#3465a4" />
        <path
   d="m 6950,4800 101,-463 -298,32 z"
   id="path109"
   inkscape:connector-curvature="0"
   style="fill:#3465a4;stroke:none" />
       </g>
      </g>
      <g
   class="com.sun.star.drawing.ConnectorShape"
   id="g121">
       <g
   id="id10">
        <rect
   class="BoundingBox"
   x="4810"
   y="3974"
   width="1682"
   height="1018"
   id="rect114"
   style="fill:none;stroke:none" />
        <path
   d="m 6490,4990 c -265,0 459,-758 -1241,-867"
   id="path116"
   inkscape:connector-curvature="0"
   style="fill:none;stroke:#3465a4" />
        <path
   d="m 4810,4110 445,164 9,-300 z"
   id="path118"
   inkscape:connector-curvature="0"
   style="fill:#3465a4;stroke:none" />
       </g>
      </g>
      <g
   class="com.sun.star.drawing.ConnectorShape"
   id="g130">
       <g
   id="id11">
        <rect
   class="BoundingBox"
   x="2349"
   y="3649"
   width="1353"
   height="2642"
   id="rect123"
   style="fill:none;stroke:none" />
        <path
   d="m 3700,3650 c -807,0 -1139,737 -1201,2210"
   id="path125"
   inkscape:connector-curvature="0"
   style="fill:none;stroke:#3465a4" />
        <path
   d="m 2490,6290 160,-447 -300,-6 z"
   id="path127"
   inkscape:connector-curvature="0"
   style="fill:#3465a4;stroke:none" />
       </g>
      </g>
      <g
   class="com.sun.star.drawing.ConnectorShape"
   id="g139">
       <g
   id="id12">
        <rect
   class="BoundingBox"
   x="3409"
   y="4300"
   width="1040"
   height="1992"
   id="rect132"
   style="fill:none;stroke:none" />
        <path
   d="m 3410,6290 c 0,-1633 703,-860 893,-1559"
   id="path134"
   inkscape:connector-curvature="0"
   style="fill:none;stroke:#3465a4" />
        <path
   d="m 4350,4300 -201,430 298,34 z"
   id="path136"
   inkscape:connector-curvature="0"
   style="fill:#3465a4;stroke:none" />
       </g>
      </g>
      <g
   class="com.sun.star.drawing.ConnectorShape"
   id="g148">
       <g
   id="id13">
        <rect
   class="BoundingBox"
   x="6700"
   y="5909"
   width="712"
   height="2342"
   id="rect141"
   style="fill:none;stroke:none" />
        <path
   d="m 7410,5910 c 0,1560 -117,1811 -352,2136"
   id="path143"
   inkscape:connector-curvature="0"
   style="fill:none;stroke:#3465a4" />
        <path
   d="m 6700,8250 463,-102 -153,-257 z"
   id="path145"
   inkscape:connector-curvature="0"
   style="fill:#3465a4;stroke:none" />
       </g>
      </g>
      <g
   class="com.sun.star.drawing.ConnectorShape"
   id="g157">
       <g
   id="id14">
        <rect
   class="BoundingBox"
   x="6100"
   y="8709"
   width="1252"
   height="3108"
   id="rect150"
   style="fill:none;stroke:none" />
        <path
   d="m 6510,8710 c 1038,0 1198,2508 -1,2968"
   id="path152"
   inkscape:connector-curvature="0"
   style="fill:none;stroke:#3465a4" />
        <path
   d="m 6100,11750 470,66 -55,-295 z"
   id="path154"
   inkscape:connector-curvature="0"
   style="fill:#3465a4;stroke:none" />
       </g>
      </g>
      <g
   class="com.sun.star.drawing.ConnectorShape"
   id="g166">
       <g
   id="id15">
        <rect
   class="BoundingBox"
   x="5895"
   y="8900"
   width="302"
   height="2392"
   id="rect159"
   style="fill:none;stroke:none" />
        <path
   d="m 5910,11290 c 0,-1933 112,-955 136,-1958"
   id="path161"
   inkscape:connector-curvature="0"
   style="fill:none;stroke:#3465a4" />
        <path
   d="m 6050,8900 -155,448 300,4 z"
   id="path163"
   inkscape:connector-curvature="0"
   style="fill:#3465a4;stroke:none" />
       </g>
      </g>
      <g
   class="com.sun.star.drawing.ConnectorShape"
   id="g175">
       <g
   id="id16">
        <rect
   class="BoundingBox"
   x="3849"
   y="9799"
   width="952"
   height="1967"
   id="rect168"
   style="fill:none;stroke:none" />
        <path
   d="m 3850,9800 c 0,1300 181,1596 544,1835"
   id="path170"
   inkscape:connector-curvature="0"
   style="fill:none;stroke:#3465a4" />
        <path
   d="m 4800,11750 -388,-273 -86,288 z"
   id="path172"
   inkscape:connector-curvature="0"
   style="fill:#3465a4;stroke:none" />
       </g>
      </g>
      <g
   class="com.sun.star.drawing.ConnectorShape"
   id="g184">
       <g
   id="id17">
        <rect
   class="BoundingBox"
   x="2489"
   y="7209"
   width="712"
   height="1942"
   id="rect177"
   style="fill:none;stroke:none" />
        <path
   d="m 2490,7210 c 0,1294 113,1480 340,1756"
   id="path179"
   inkscape:connector-curvature="0"
   style="fill:none;stroke:#3465a4" />
        <path
   d="m 3200,9150 -330,-341 -138,266 z"
   id="path181"
   inkscape:connector-curvature="0"
   style="fill:#3465a4;stroke:none" />
       </g>
      </g>
      <g
   class="com.sun.star.drawing.ConnectorShape"
   id="g193">
       <g
   id="id18">
        <rect
   class="BoundingBox"
   x="3599"
   y="6749"
   width="1992"
   height="1157"
   id="rect186"
   style="fill:none;stroke:none" />
        <path
   d="m 3600,6750 c 1351,0 536,838 1566,1010"
   id="path188"
   inkscape:connector-curvature="0"
   style="fill:none;stroke:#3465a4" />
        <path
   d="m 5590,7790 -437,-184 -23,299 z"
   id="path190"
   inkscape:connector-curvature="0"
   style="fill:#3465a4;stroke:none" />
       </g>
      </g>
      <g
   class="com.sun.star.drawing.ConnectorShape"
   id="g202">
       <g
   id="id19">
        <rect
   class="BoundingBox"
   x="5692"
   y="5430"
   width="609"
   height="2172"
   id="rect195"
   style="fill:none;stroke:none" />
        <path
   d="m 6050,7600 c 0,-1123 -126,-935 -251,-1192 -125,-257 -188,-639 92,-847"
   id="path197"
   inkscape:connector-curvature="0"
   style="fill:none;stroke:#3465a4" />
        <path
   d="m 6300,5450 -474,-19 83,288 z"
   id="path199"
   inkscape:connector-curvature="0"
   style="fill:#3465a4;stroke:none" />
       </g>
      </g>
     </g>
    </g>
   </g>
  </g>
 </g>
</svg>