<?xml version="1.0" encoding="UTF-8" standalone="no"?>
<!-- Created with Inkscape (http://www.inkscape.org/) -->
<svg xmlns:inkscape="http://www.inkscape.org/namespaces/inkscape" xmlns:rdf="http://www.w3.org/1999/02/22-rdf-syntax-ns#" xmlns="http://www.w3.org/2000/svg" xmlns:cc="http://creativecommons.org/ns#" xmlns:dc="http://purl.org/dc/elements/1.1/" xmlns:sodipodi="http://sodipodi.sourceforge.net/DTD/sodipodi-0.dtd" xmlns:svg="http://www.w3.org/2000/svg" xmlns:ns1="http://sozi.baierouge.fr" xmlns:xlink="http://www.w3.org/1999/xlink" id="svg2" sodipodi:docname="Nový dokument 1" viewBox="0 0 1052.4 744.09" version="1.1" inkscape:version="0.48.0 r9654">
  <sodipodi:namedview id="base" bordercolor="#666666" inkscape:pageshadow="2" inkscape:window-y="-8" pagecolor="#ffffff" inkscape:window-height="706" inkscape:window-maximized="1" inkscape:zoom="0.49497475" inkscape:window-x="-8" showgrid="false" borderopacity="1.0" inkscape:current-layer="layer1" inkscape:cx="419.45668" inkscape:cy="371.93866" inkscape:window-width="1360" inkscape:pageopacity="0.0" inkscape:document-units="px"/>
  <g id="layer1" inkscape:label="Vrstva 1" inkscape:groupmode="layer" transform="translate(0 -308.27)">
    <g id="g3804" transform="matrix(1.2333 0 0 1.2333 -18.053 -214.41)">
      <path id="path3020" sodipodi:rx="70.710678" sodipodi:ry="64.649765" style="stroke-linejoin:round;stroke:#000000;stroke-linecap:round;stroke-width:12.8;fill:none" sodipodi:type="arc" d="m486.89 222.86c0 35.705-31.658 64.65-70.711 64.65-39.052 0-70.711-28.945-70.711-64.65s31.658-64.65 70.711-64.65c39.052 0 70.711 28.945 70.711 64.65z" transform="translate(0 308.27)" sodipodi:cy="222.85577" sodipodi:cx="416.18286"/>
      <path id="path3022" style="stroke:#000000;stroke-width:12.8;fill:none" d="m413.15 288.52 1.0102 86.197s158.24-92.261 158.59-118.52c0.25346-19.066-10.068-24.227-10.102-24.244" sodipodi:nodetypes="ccsc" transform="translate(0 308.27)" inkscape:connector-curvature="0"/>
      <path id="path3024" style="stroke:#000000;stroke-width:12.8;fill:none" d="m277.79 252.15c-0.00039-0.00065-8.462-14.103-12.122 27.274-2.6296 29.73 147.48 93.86 147.48 93.86-12.842 41.586-10.089 86.291 3.9905 133.26-45.991 43.838-68.548 111.11-93.801 175.68l-41.668-0.44323" sodipodi:nodetypes="cscccc" transform="translate(0 308.27)" inkscape:connector-curvature="0"/>
      <path id="path3026" style="stroke:#000000;stroke-width:12.8;fill:none" d="m416.79 503.34c49.925 55.309 65.374 115.92 75.962 178.97l42.189-0.76582" sodipodi:nodetypes="ccc" transform="translate(0 308.27)" inkscape:connector-curvature="0"/>
      <path id="path3796" sodipodi:rx="70.710678" sodipodi:ry="64.649765" style="stroke-linejoin:round;stroke:#000000;stroke-linecap:round;stroke-width:23.064;fill:none" sodipodi:type="arc" d="m486.89 222.86c0 35.705-31.658 64.65-70.711 64.65-39.052 0-70.711-28.945-70.711-64.65s31.658-64.65 70.711-64.65c39.052 0 70.711 28.945 70.711 64.65z" transform="matrix(.17538 0 0 .17538 309.91 469.82)" sodipodi:cy="222.85577" sodipodi:cx="416.18286"/>
      <path id="path3800" sodipodi:rx="70.710678" sodipodi:ry="64.649765" style="stroke-linejoin:round;stroke:#000000;stroke-linecap:round;stroke-width:24.204;fill:none" sodipodi:type="arc" d="m486.89 222.86c0 35.705-31.658 64.65-70.711 64.65-39.052 0-70.711-28.945-70.711-64.65s31.658-64.65 70.711-64.65c39.052 0 70.711 28.945 70.711 64.65z" transform="matrix(.17538 0 0 .17538 364.46 469.82)" sodipodi:cy="222.85577" sodipodi:cx="416.18286"/>
      <path id="path3802" d="m377.45 550.98s40.443 30.639 63.729 15.932c23.285-14.707-63.729-15.932-63.729-15.932z" style="stroke:#000000;stroke-width:4.103;fill:none" inkscape:connector-curvature="0"/>
    </g>
  </g>
  <metadata>
    <rdf:RDF>
      <cc:Work>
        <dc:format>image/svg+xml</dc:format>
        <dc:type rdf:resource="http://purl.org/dc/dcmitype/StillImage"/>
        <cc:license rdf:resource="http://creativecommons.org/licenses/publicdomain/"/>
        <dc:publisher>
          <cc:Agent rdf:about="http://openclipart.org/">
            <dc:title>Openclipart</dc:title>
          </cc:Agent>
        </dc:publisher>
        <dc:title>human</dc:title>
        <dc:date>2011-04-20T12:47:07</dc:date>
        <dc:description/>
        <dc:source>https://openclipart.org/detail/133303/human-by-raptor-2</dc:source>
        <dc:creator>
          <cc:Agent>
            <dc:title>raptor 2</dc:title>
          </cc:Agent>
        </dc:creator>
        <dc:subject>
          <rdf:Bag>
            <rdf:li>black</rdf:li>
            <rdf:li>figure</rdf:li>
            <rdf:li>human</rdf:li>
            <rdf:li>stick figure</rdf:li>
          </rdf:Bag>
        </dc:subject>
      </cc:Work>
      <cc:License rdf:about="http://creativecommons.org/licenses/publicdomain/">
        <cc:permits rdf:resource="http://creativecommons.org/ns#Reproduction"/>
        <cc:permits rdf:resource="http://creativecommons.org/ns#Distribution"/>
        <cc:permits rdf:resource="http://creativecommons.org/ns#DerivativeWorks"/>
      </cc:License>
    </rdf:RDF>
  </metadata>
</svg>