<?xml version="1.0" encoding="UTF-8"?>
<!DOCTYPE svg PUBLIC "-//W3C//DTD SVG 1.1//EN" "http://www.w3.org/Graphics/SVG/1.1/DTD/svg11.dtd">
<svg version="1.1" xmlns="http://www.w3.org/2000/svg" xmlns:xlink="http://www.w3.org/1999/xlink" x="0" y="0" width="281" height="242" viewBox="0, 0, 281, 242">
  <g id="レイヤー_1">
    <g>
      <path d="M20.408,102.66 C17.633,109.953 43.306,126.498 77.755,139.618 C112.198,152.731 142.373,157.455 145.158,150.168 C147.933,142.875 122.255,126.33 87.806,113.212 C53.357,100.093 23.181,95.373 20.408,102.66" fill="#B0DEF7"/>
      <path d="M71.071,41.669 C65.222,46.828 80.231,73.431 104.612,101.07 C128.994,128.713 153.5,146.948 159.358,141.792 C165.207,136.629 150.188,110.029 125.8,82.379 C101.43,54.734 76.919,36.506 71.071,41.669" fill="#B0DEF7"/>
      <path d="M76.229,3.849 C68.05,8.867 80.649,44.266 104.384,82.906 C128.109,121.547 153.966,148.796 162.156,143.778 C170.328,138.766 157.719,103.362 133.989,64.721 C110.27,26.075 84.402,-1.174 76.229,3.849" fill="#CCE9F9"/>
      <path d="M192.488,186.496 C192.197,186.496 191.905,186.424 191.64,186.276 L184.054,182.04 C183.217,181.571 182.917,180.513 183.384,179.675 C183.852,178.838 184.91,178.537 185.75,179.005 L190.22,181.502 L183.695,139.725 C183.547,138.776 184.195,137.888 185.143,137.739 C186.096,137.585 186.981,138.24 187.129,139.187 L194.205,184.49 C194.307,185.147 194.026,185.805 193.481,186.184 C193.183,186.392 192.837,186.496 192.488,186.496" fill="#332D2B"/>
      <path d="M162.048,188.084 C161.7,188.084 161.354,187.98 161.057,187.774 L153.92,182.821 C153.132,182.273 152.937,181.191 153.484,180.402 C154.031,179.617 155.112,179.421 155.902,179.966 L160.186,182.938 L158.389,133.453 C158.354,132.494 159.103,131.688 160.062,131.653 C161.013,131.604 161.826,132.367 161.861,133.326 L163.784,186.283 C163.809,186.941 163.459,187.556 162.881,187.871 C162.621,188.014 162.334,188.084 162.048,188.084" fill="#332D2B"/>
      <path d="M139.458,226.57 C139.339,226.57 139.221,226.558 139.103,226.534 C138.573,226.423 85.886,214.992 64.326,174.189 C63.877,173.341 64.202,172.29 65.05,171.841 C65.899,171.393 66.95,171.716 67.398,172.566 C85.788,207.368 127.84,220.068 137.715,222.624 L137.531,149.288 C137.528,148.329 138.305,147.549 139.264,147.547 C140.241,147.578 141.004,148.319 141.006,149.28 L141.196,224.829 C141.197,225.352 140.962,225.849 140.556,226.179 C140.243,226.434 139.854,226.57 139.458,226.57" fill="#332D2B"/>
      <path d="M58.721,197.698 C62.582,204.969 87.485,199.28 114.316,184.987 C141.152,170.706 159.772,153.219 155.907,145.956 C152.034,138.69 127.142,144.376 100.3,158.673 C73.47,172.96 54.851,190.428 58.721,197.698" fill="#5F5D5D"/>
      <path d="M148.053,150.137 C151.925,157.403 164.767,158.117 176.725,151.756 C188.707,145.379 195.28,134.319 191.403,127.055 C187.53,119.782 174.694,119.054 162.714,125.43 C150.744,131.815 144.175,142.862 148.053,150.137" fill="#5F5D5D"/>
      <path d="M129.471,146.215 L140.939,167.74 C139.593,168.817 138.192,169.902 136.715,171.004 L124.405,147.887 C126.148,147.276 127.826,146.713 129.471,146.215" fill="#C9CACA"/>
      <path d="M110.543,153.59 L124.254,179.328 C122.781,180.231 121.261,181.121 119.714,182 L105.791,155.854 C107.393,155.065 108.979,154.307 110.543,153.59" fill="#C9CACA"/>
      <path d="M75.828,174.237 L87.74,196.608 C85.987,197.194 84.282,197.727 82.626,198.192 L71.652,177.591 C72.966,176.489 74.367,175.364 75.828,174.237" fill="#C9CACA"/>
      <path d="M92.677,162.963 L106.502,188.924 C104.889,189.69 103.299,190.418 101.719,191.127 L88.181,165.699 C89.648,164.781 91.14,163.865 92.677,162.963" fill="#C9CACA"/>
      <path d="M190.669,114.708 L278.756,218.752 L175.655,131.869" fill="#E52329"/>
      <path d="M186.08,109.274 C186.08,122.389 196.718,133.022 209.834,133.022 C222.947,133.022 233.579,122.389 233.579,109.274 C233.579,96.161 222.947,85.528 209.834,85.528 C196.718,85.528 186.08,96.161 186.08,109.274" fill="#FEFEFE"/>
      <path d="M209.834,89.003 C198.652,89.003 189.556,98.097 189.556,109.274 C189.556,120.452 198.652,129.546 209.834,129.546 C221.011,129.546 230.104,120.452 230.104,109.274 C230.104,98.097 221.011,89.003 209.834,89.003 M209.834,136.497 C194.819,136.497 182.605,124.284 182.605,109.274 C182.605,94.264 194.819,82.053 209.834,82.053 C224.844,82.053 237.055,94.264 237.055,109.274 C237.055,124.284 224.844,136.497 209.834,136.497" fill="#332D2B"/>
      <path d="M207.801,104.063 C207.801,109.498 212.218,113.908 217.648,113.908 C223.087,113.908 227.497,109.498 227.497,104.063 C227.497,98.622 223.087,94.212 217.648,94.212 C212.218,94.212 207.801,98.622 207.801,104.063" fill="#332D2B"/>
      <path d="M187.249,109.274 C187.249,122.389 176.61,133.022 163.497,133.022 C150.384,133.022 139.75,122.389 139.75,109.274 C139.75,96.161 150.384,85.528 163.497,85.528 C176.61,85.528 187.249,96.161 187.249,109.274" fill="#FEFEFE"/>
      <path d="M163.497,89.003 C152.319,89.003 143.226,98.097 143.226,109.274 C143.226,120.452 152.319,129.546 163.497,129.546 C174.678,129.546 183.773,120.452 183.773,109.274 C183.773,98.097 174.678,89.003 163.497,89.003 M163.497,136.497 C148.486,136.497 136.275,124.284 136.275,109.274 C136.275,94.264 148.486,82.053 163.497,82.053 C178.51,82.053 190.725,94.264 190.725,109.274 C190.725,124.284 178.51,136.497 163.497,136.497" fill="#332D2B"/>
      <path d="M3.432,67.517 C-1.151,75.955 27.45,100.321 67.306,121.944 C107.163,143.565 143.182,154.253 147.766,145.825 C152.338,137.393 123.737,113.022 83.88,91.394 C44.023,69.771 8.004,59.085 3.432,67.517" fill="#CCE9F9"/>
      <path d="M99.492,240.472 C99.425,240.472 99.358,240.468 99.291,240.46 C98.742,240.397 44.157,233.504 21.422,184.534 C21.018,183.664 21.396,182.631 22.266,182.227 C23.136,181.825 24.17,182.201 24.574,183.072 C44.089,225.105 88.048,235.006 97.77,236.708 L98.623,126.637 C98.628,126.023 98.957,125.457 99.488,125.149 C100.018,124.838 100.673,124.835 101.21,125.134 L152.47,153.812 C153.306,154.281 153.606,155.339 153.138,156.177 C152.669,157.013 151.609,157.314 150.772,156.845 L102.076,129.601 L101.23,238.748 C101.226,239.242 101.013,239.71 100.642,240.037 C100.323,240.319 99.913,240.472 99.492,240.472" fill="#332D2B"/>
      <path d="M149.013,215.277 C148.887,215.277 148.761,215.263 148.636,215.236 L140.818,213.498 C139.881,213.29 139.29,212.361 139.498,211.424 C139.706,210.488 140.636,209.893 141.572,210.105 L147.154,211.346 L143.521,144.507 C143.49,143.924 143.752,143.365 144.221,143.017 C144.691,142.669 145.302,142.581 145.85,142.78 L168.721,151.089 C169.622,151.416 170.088,152.413 169.76,153.315 C169.433,154.217 168.437,154.68 167.534,154.354 L147.134,146.944 L150.748,213.445 C150.778,213.988 150.551,214.513 150.137,214.865 C149.82,215.133 149.42,215.277 149.013,215.277" fill="#332D2B"/>
      <path d="M170.946,218.339 C170.875,218.339 170.803,218.335 170.731,218.326 L160.094,217.002 C159.142,216.883 158.467,216.015 158.585,215.063 C158.703,214.111 159.561,213.435 160.524,213.553 L169.084,214.618 L164.656,142.4 C164.618,141.78 164.913,141.189 165.429,140.845 C165.947,140.504 166.607,140.461 167.162,140.736 L180.026,147.113 C180.886,147.539 181.238,148.582 180.811,149.442 C180.386,150.303 179.342,150.652 178.483,150.227 L168.308,145.184 L172.68,216.495 C172.712,217.011 172.512,217.515 172.135,217.868 C171.811,218.173 171.385,218.339 170.946,218.339" fill="#332D2B"/>
      <path d="M160.883,104.063 C160.883,109.498 165.298,113.908 170.729,113.908 C176.171,113.908 180.578,109.498 180.578,104.063 C180.578,98.622 176.171,94.212 170.729,94.212 C165.298,94.212 160.883,98.622 160.883,104.063" fill="#332D2B"/>
    </g>
  </g>
</svg>