<?xml version="1.0" encoding="UTF-8" standalone="no"?>
<!-- Created with Inkscape (http://www.inkscape.org/) -->
<svg xmlns:dc="http://purl.org/dc/elements/1.1/" xmlns:cc="http://creativecommons.org/ns#" xmlns:rdf="http://www.w3.org/1999/02/22-rdf-syntax-ns#" xmlns:svg="http://www.w3.org/2000/svg" xmlns="http://www.w3.org/2000/svg" xmlns:sodipodi="http://sodipodi.sourceforge.net/DTD/sodipodi-0.dtd" xmlns:inkscape="http://www.inkscape.org/namespaces/inkscape" id="svg8828" version="1.1" inkscape:version="0.91 r13725" width="578.30444" height="277.89966" viewBox="0 0 578.30444 277.89966" sodipodi:docname="rat.svg" inkscape:export-filename="/home/murad/AnisaStuff/rawpics/rat.png" inkscape:export-xdpi="46.68821" inkscape:export-ydpi="46.68821">
  <metadata id="metadata8834">
    <rdf:RDF>
      <cc:Work rdf:about="">
        <dc:format>image/svg+xml</dc:format>
        <dc:type rdf:resource="http://purl.org/dc/dcmitype/StillImage"/>
        <dc:title/>
      </cc:Work>
    </rdf:RDF>
  </metadata>
  <defs id="defs8832">
    <filter inkscape:collect="always" style="color-interpolation-filters:sRGB" id="filter10791" x="-0.30766669" width="1.6153334" y="-0.27689996" height="1.5537999">
      <feGaussianBlur inkscape:collect="always" stdDeviation="1.2924975" id="feGaussianBlur10793"/>
    </filter>
    <filter inkscape:collect="always" style="color-interpolation-filters:sRGB" id="filter10795" x="-0.39557168" width="1.7911434" y="-0.19778571" height="1.3955714">
      <feGaussianBlur inkscape:collect="always" stdDeviation="1.2924975" id="feGaussianBlur10797"/>
    </filter>
    <filter inkscape:collect="always" style="color-interpolation-filters:sRGB" id="filter10807" x="-0.55379993" width="2.1076" y="-0.18460009" height="1.3692002">
      <feGaussianBlur inkscape:collect="always" stdDeviation="1.2924975" id="feGaussianBlur10809"/>
    </filter>
    <filter inkscape:collect="always" style="color-interpolation-filters:sRGB" id="filter10819" x="-0.3461251" width="1.6922503" y="-0.30766669" height="1.6153334">
      <feGaussianBlur inkscape:collect="always" stdDeviation="1.2924975" id="feGaussianBlur10821"/>
    </filter>
    <filter inkscape:collect="always" style="color-interpolation-filters:sRGB" id="filter10823" x="-0.3461251" width="1.6922503" y="-0.42599976" height="1.8519995">
      <feGaussianBlur inkscape:collect="always" stdDeviation="1.2924975" id="feGaussianBlur10825"/>
    </filter>
    <filter inkscape:collect="always" style="color-interpolation-filters:sRGB" id="filter10827" x="-0.46149981" width="1.9229996" y="-0.29147366" height="1.5829473">
      <feGaussianBlur inkscape:collect="always" stdDeviation="1.2924975" id="feGaussianBlur10829"/>
    </filter>
    <filter inkscape:collect="always" style="color-interpolation-filters:sRGB" id="filter10819-8" x="-0.3461251" width="1.6922503" y="-0.30766669" height="1.6153334">
      <feGaussianBlur inkscape:collect="always" stdDeviation="1.2924975" id="feGaussianBlur10821-9"/>
    </filter>
    <filter inkscape:collect="always" style="color-interpolation-filters:sRGB" id="filter10823-7" x="-0.3461251" width="1.6922503" y="-0.42599976" height="1.8519995">
      <feGaussianBlur inkscape:collect="always" stdDeviation="1.2924975" id="feGaussianBlur10825-3"/>
    </filter>
    <filter inkscape:collect="always" style="color-interpolation-filters:sRGB" id="filter10827-6" x="-0.46149981" width="1.9229996" y="-0.29147366" height="1.5829473">
      <feGaussianBlur inkscape:collect="always" stdDeviation="1.2924975" id="feGaussianBlur10829-1"/>
    </filter>
    <filter inkscape:collect="always" style="color-interpolation-filters:sRGB" id="filter11302" x="-0.18046658" width="1.3609331" y="-0.46503496" height="1.9300699">
      <feGaussianBlur inkscape:collect="always" stdDeviation="1.4835147" id="feGaussianBlur11304"/>
    </filter>
    <filter inkscape:collect="always" style="color-interpolation-filters:sRGB" id="filter11306" x="-0.11139605" width="1.2227921" y="-0.36673334" height="1.7334667">
      <feGaussianBlur inkscape:collect="always" stdDeviation="1.4835147" id="feGaussianBlur11308"/>
    </filter>
    <filter inkscape:collect="always" style="color-interpolation-filters:sRGB" id="filter11310" x="-0.11196554" width="1.2239311" y="-0.52789259" height="2.0557852">
      <feGaussianBlur inkscape:collect="always" stdDeviation="1.4835147" id="feGaussianBlur11312"/>
    </filter>
    <filter inkscape:collect="always" style="color-interpolation-filters:sRGB" id="filter11314" x="-0.17179613" width="1.3435923" y="-0.79454225" height="2.5890844">
      <feGaussianBlur inkscape:collect="always" stdDeviation="1.4835147" id="feGaussianBlur11316"/>
    </filter>
    <filter inkscape:collect="always" style="color-interpolation-filters:sRGB" id="filter11318" x="-0.10773654" width="1.2154731" y="-0.57493168" height="2.1498635">
      <feGaussianBlur inkscape:collect="always" stdDeviation="1.4835147" id="feGaussianBlur11320"/>
    </filter>
    <filter inkscape:collect="always" style="color-interpolation-filters:sRGB" id="filter11742" x="-0.4616324" width="1.9232647" y="-0.52493519" height="2.0498705">
      <feGaussianBlur inkscape:collect="always" stdDeviation="2.1784307" id="feGaussianBlur11744"/>
    </filter>
    <filter inkscape:collect="always" style="color-interpolation-filters:sRGB" id="filter11746" x="-0.38360336" width="1.7672067" y="-0.53364462" height="2.0672891">
      <feGaussianBlur inkscape:collect="always" stdDeviation="2.1784307" id="feGaussianBlur11748"/>
    </filter>
    <filter inkscape:collect="always" style="color-interpolation-filters:sRGB" id="filter11750" x="-0.42065564" width="1.8413113" y="-0.51487821" height="2.0297565">
      <feGaussianBlur inkscape:collect="always" stdDeviation="2.1784307" id="feGaussianBlur11752"/>
    </filter>
    <filter inkscape:collect="always" style="color-interpolation-filters:sRGB" id="filter11754" x="-0.40582517" width="1.8116504" y="-0.66671348" height="2.333427">
      <feGaussianBlur inkscape:collect="always" stdDeviation="2.1784307" id="feGaussianBlur11756"/>
    </filter>
    <filter inkscape:collect="always" style="color-interpolation-filters:sRGB" id="filter11758" x="-0.34570307" width="1.6914062" y="-0.71799827" height="2.4359965">
      <feGaussianBlur inkscape:collect="always" stdDeviation="2.1784307" id="feGaussianBlur11760"/>
    </filter>
    <filter inkscape:collect="always" style="color-interpolation-filters:sRGB" id="filter11762" x="-0.37335911" width="1.7467182" y="-0.66671258" height="2.3334253">
      <feGaussianBlur inkscape:collect="always" stdDeviation="2.1784307" id="feGaussianBlur11764"/>
    </filter>
    <filter inkscape:collect="always" style="color-interpolation-filters:sRGB" id="filter11862" x="-0.56086129" width="2.1217227" y="-0.60759979" height="2.2151997">
      <feGaussianBlur inkscape:collect="always" stdDeviation="1.7016718" id="feGaussianBlur11864"/>
    </filter>
    <filter inkscape:collect="always" style="color-interpolation-filters:sRGB" id="filter11866" x="-3.6455934" width="8.2911863" y="-0.34719995" height="1.6944">
      <feGaussianBlur inkscape:collect="always" stdDeviation="1.7016718" id="feGaussianBlur11868"/>
    </filter>
    <filter inkscape:collect="always" style="color-interpolation-filters:sRGB" id="filter11870" x="-0.34719995" width="1.6944" y="-0.33141813" height="1.6628362">
      <feGaussianBlur inkscape:collect="always" stdDeviation="1.7016718" id="feGaussianBlur11872"/>
    </filter>
    <filter inkscape:collect="always" style="color-interpolation-filters:sRGB" id="filter11874" x="-0.56086206" width="2.1217241" y="-0.31700861" height="1.6340172">
      <feGaussianBlur inkscape:collect="always" stdDeviation="1.7016718" id="feGaussianBlur11876"/>
    </filter>
    <filter inkscape:collect="always" style="color-interpolation-filters:sRGB" id="filter12038" x="-0.21577705" width="1.4315541" y="-0.77679765" height="2.5535953">
      <feGaussianBlur inkscape:collect="always" stdDeviation="1.8129454" id="feGaussianBlur12040"/>
    </filter>
    <filter inkscape:collect="always" style="color-interpolation-filters:sRGB" id="filter12042">
      <feGaussianBlur inkscape:collect="always" stdDeviation="1.8129454" id="feGaussianBlur12044"/>
    </filter>
    <filter inkscape:collect="always" style="color-interpolation-filters:sRGB" id="filter12046" x="-0.27742776" width="1.5548555" y="-2.5893209" height="6.1786418">
      <feGaussianBlur inkscape:collect="always" stdDeviation="1.8129454" id="feGaussianBlur12048"/>
    </filter>
    <filter inkscape:collect="always" style="color-interpolation-filters:sRGB" id="filter12050" x="-0.25893256" width="1.5178651" y="-7.7679625" height="16.535925">
      <feGaussianBlur inkscape:collect="always" stdDeviation="1.8129454" id="feGaussianBlur12052"/>
    </filter>
    <filter inkscape:collect="always" style="color-interpolation-filters:sRGB" id="filter12054" x="-0.48549822" width="1.9709964" y="-1.9419993" height="4.8839984">
      <feGaussianBlur inkscape:collect="always" stdDeviation="1.8129454" id="feGaussianBlur12056"/>
    </filter>
    <filter inkscape:collect="always" style="color-interpolation-filters:sRGB" id="filter12058" x="-0.21577705" width="1.4315541" y="-0.77679765" height="2.5535953">
      <feGaussianBlur inkscape:collect="always" stdDeviation="1.8129454" id="feGaussianBlur12060"/>
    </filter>
    <filter inkscape:collect="always" style="color-interpolation-filters:sRGB" id="filter12062">
      <feGaussianBlur inkscape:collect="always" stdDeviation="1.8129454" id="feGaussianBlur12064"/>
    </filter>
    <filter inkscape:collect="always" style="color-interpolation-filters:sRGB" id="filter12066" x="-0.27742776" width="1.5548555" y="-2.5893209" height="6.1786418">
      <feGaussianBlur inkscape:collect="always" stdDeviation="1.8129454" id="feGaussianBlur12068"/>
    </filter>
    <filter inkscape:collect="always" style="color-interpolation-filters:sRGB" id="filter12070" x="-0.25893256" width="1.5178651" y="-7.7679625" height="16.535925">
      <feGaussianBlur inkscape:collect="always" stdDeviation="1.8129454" id="feGaussianBlur12072"/>
    </filter>
    <filter inkscape:collect="always" style="color-interpolation-filters:sRGB" id="filter12074" x="-0.48549822" width="1.9709964" y="-1.9419993" height="4.8839984">
      <feGaussianBlur inkscape:collect="always" stdDeviation="1.8129454" id="feGaussianBlur12076"/>
    </filter>
    <filter inkscape:collect="always" style="color-interpolation-filters:sRGB" id="filter12184" x="-0.16137931" width="1.3227586" y="-0.46799999" height="1.936">
      <feGaussianBlur inkscape:collect="always" stdDeviation="2.184503" id="feGaussianBlur12186"/>
    </filter>
    <filter inkscape:collect="always" style="color-interpolation-filters:sRGB" id="filter12258" x="-0.18514284" width="1.3702857" y="-0.25920001" height="1.5184">
      <feGaussianBlur inkscape:collect="always" stdDeviation="1.8148181" id="feGaussianBlur12260"/>
    </filter>
    <filter inkscape:collect="always" style="color-interpolation-filters:sRGB" id="filter12344" x="-0.21419998" width="1.4283999" y="-0.30600005" height="1.6120001">
      <feGaussianBlur inkscape:collect="always" stdDeviation="2.9994904" id="feGaussianBlur12346"/>
    </filter>
    <filter inkscape:collect="always" style="color-interpolation-filters:sRGB" id="filter12430" x="-0.24600001" width="1.492" y="-0.2342857" height="1.4685714">
      <feGaussianBlur inkscape:collect="always" stdDeviation="1.1482645" id="feGaussianBlur12432"/>
    </filter>
    <filter inkscape:collect="always" style="color-interpolation-filters:sRGB" id="filter12552" x="-0.23727266" width="1.4745452" y="-0.65250027" height="2.3050005">
      <feGaussianBlur inkscape:collect="always" stdDeviation="1.2182805" id="feGaussianBlur12554"/>
    </filter>
    <filter inkscape:collect="always" style="color-interpolation-filters:sRGB" id="filter12728" x="-0.68850043" width="2.3770009" y="-0.28989466" height="1.5797893">
      <feGaussianBlur inkscape:collect="always" stdDeviation="1.8179653" id="feGaussianBlur12730"/>
    </filter>
    <filter inkscape:collect="always" style="color-interpolation-filters:sRGB" id="filter12878" x="-0.54" width="2.08" y="-0.36" height="1.72">
      <feGaussianBlur inkscape:collect="always" stdDeviation="1.7823195" id="feGaussianBlur12880"/>
    </filter>
    <filter inkscape:collect="always" style="color-interpolation-filters:sRGB" id="filter13138" x="-0.058418109" width="1.1168362" y="-0.13860254" height="1.2772051">
      <feGaussianBlur inkscape:collect="always" stdDeviation="0.599898" id="feGaussianBlur13140"/>
    </filter>
    <filter inkscape:collect="always" style="color-interpolation-filters:sRGB" id="filter13142" x="-0.06120003" width="1.1224001" y="-0.035699997" height="1.0714">
      <feGaussianBlur inkscape:collect="always" stdDeviation="0.599898" id="feGaussianBlur13144"/>
    </filter>
    <filter inkscape:collect="always" style="color-interpolation-filters:sRGB" id="filter13146" x="-0.13902717" width="1.2780543" y="-0.033821047" height="1.0676421">
      <feGaussianBlur inkscape:collect="always" stdDeviation="0.599898" id="feGaussianBlur13148"/>
    </filter>
    <filter inkscape:collect="always" style="color-interpolation-filters:sRGB" id="filter13150" x="-0.19735327" width="1.3947065" y="-0.030599996" height="1.0612">
      <feGaussianBlur inkscape:collect="always" stdDeviation="0.599898" id="feGaussianBlur13152"/>
    </filter>
    <filter inkscape:collect="always" style="color-interpolation-filters:sRGB" id="filter13154" x="-0.071400137" width="1.1428003" y="-0.062692663" height="1.1253853">
      <feGaussianBlur inkscape:collect="always" stdDeviation="0.599898" id="feGaussianBlur13156"/>
    </filter>
    <filter inkscape:collect="always" style="color-interpolation-filters:sRGB" id="filter13158" x="-0.069470161" width="1.1389403" y="-0.2024208" height="1.4048416">
      <feGaussianBlur inkscape:collect="always" stdDeviation="0.599898" id="feGaussianBlur13160"/>
    </filter>
    <filter inkscape:collect="always" style="color-interpolation-filters:sRGB" id="filter13162" x="-0.043566104" width="1.0871322" y="-0.095199993" height="1.1904">
      <feGaussianBlur inkscape:collect="always" stdDeviation="0.599898" id="feGaussianBlur13164"/>
    </filter>
    <filter inkscape:collect="always" style="color-interpolation-filters:sRGB" id="filter13166" x="-0.051408078" width="1.1028162" y="-0.10281594" height="1.2056319">
      <feGaussianBlur inkscape:collect="always" stdDeviation="0.599898" id="feGaussianBlur13168"/>
    </filter>
    <filter inkscape:collect="always" style="color-interpolation-filters:sRGB" id="filter13882" x="-0.15724999" width="1.3145" y="-0.29030773" height="1.5806155">
      <feGaussianBlur inkscape:collect="always" stdDeviation="1.2456433" id="feGaussianBlur13884"/>
    </filter>
  </defs>
  <sodipodi:namedview pagecolor="#ffffff" bordercolor="#666666" borderopacity="1" objecttolerance="10" gridtolerance="10" guidetolerance="10" inkscape:pageopacity="0" inkscape:pageshadow="2" inkscape:window-width="1301" inkscape:window-height="744" id="namedview8830" showgrid="false" fit-margin-top="0" fit-margin-left="0" fit-margin-right="0" fit-margin-bottom="0" inkscape:zoom="0.4463258" inkscape:cx="422.8927" inkscape:cy="60.644832" inkscape:window-x="65" inkscape:window-y="24" inkscape:window-maximized="1" inkscape:current-layer="svg8828"/>
  <path style="fill:none;fill-rule:evenodd;stroke:#000000;stroke-width:1px;stroke-linecap:butt;stroke-linejoin:miter;stroke-opacity:1;filter:url(#filter13882)" d="m 302.9943,53.723486 -19.01141,-2.772497 15.44677,7.129277" id="path13796" inkscape:connector-curvature="0" sodipodi:nodetypes="ccc"/>
  <path style="fill:none;fill-rule:evenodd;stroke:#141400;stroke-width:1.4;stroke-linecap:butt;stroke-linejoin:miter;stroke-opacity:1;filter:url(#filter11874);stroke-miterlimit:4;stroke-dasharray:none" d="m 447.4931,143.26754 7.28167,12.88297" id="path8891" inkscape:connector-curvature="0" sodipodi:nodetypes="cc"/>
  <path style="fill:none;fill-rule:evenodd;stroke:#141400;stroke-width:1.4;stroke-linecap:butt;stroke-linejoin:miter;stroke-opacity:1;filter:url(#filter11870);stroke-miterlimit:4;stroke-dasharray:none" d="m 459.81593,133.74535 11.76271,12.32284" id="path8893" inkscape:connector-curvature="0" sodipodi:nodetypes="cc"/>
  <path style="fill:none;fill-rule:evenodd;stroke:#141400;stroke-width:1.4;stroke-linecap:butt;stroke-linejoin:miter;stroke-opacity:1;filter:url(#filter10807);stroke-miterlimit:4;stroke-dasharray:none" d="m 474.37929,130.38458 5.60129,16.80386" id="path8895" inkscape:connector-curvature="0" sodipodi:nodetypes="cc"/>
  <path style="fill:none;fill-rule:evenodd;stroke:#141400;stroke-width:1.4;stroke-linecap:butt;stroke-linejoin:miter;stroke-opacity:1;filter:url(#filter11866);stroke-miterlimit:4;stroke-dasharray:none" d="m 456.45516,137.66625 1.12026,11.76271" id="path8897" inkscape:connector-curvature="0" sodipodi:nodetypes="cc"/>
  <path style="fill:none;fill-rule:evenodd;stroke:#000000;stroke-width:1.4;stroke-linecap:butt;stroke-linejoin:miter;stroke-opacity:1;filter:url(#filter12878);stroke-miterlimit:4;stroke-dasharray:none" d="m 450.72877,146.40409 7.92142,7.12928 -3.96071,-11.88213" id="path12732" inkscape:connector-curvature="0"/>
  <path style="fill:none;fill-rule:evenodd;stroke:#141400;stroke-width:1.4;stroke-linecap:butt;stroke-linejoin:miter;stroke-opacity:1;filter:url(#filter10795);stroke-miterlimit:4;stroke-dasharray:none" d="m 327.06537,157.27077 -7.8418,15.68361" id="path8901" inkscape:connector-curvature="0" sodipodi:nodetypes="cc"/>
  <path style="fill:none;fill-rule:evenodd;stroke:#141400;stroke-width:1.4;stroke-linecap:butt;stroke-linejoin:miter;stroke-opacity:1;filter:url(#filter10791);stroke-miterlimit:4;stroke-dasharray:none" d="M 337.70782,161.19167 327.6255,172.39425" id="path8903" inkscape:connector-curvature="0" sodipodi:nodetypes="cc"/>
  <path style="fill:none;fill-rule:evenodd;stroke:#141400;stroke-width:1.4;stroke-linecap:butt;stroke-linejoin:miter;stroke-opacity:1;filter:url(#filter12074);stroke-miterlimit:4;stroke-dasharray:none" d="m 256.48913,114.14084 -8.96207,2.24051" id="path8905" inkscape:connector-curvature="0" sodipodi:nodetypes="cc"/>
  <path style="fill:none;fill-rule:evenodd;stroke:#141400;stroke-width:1.4;stroke-linecap:butt;stroke-linejoin:miter;stroke-opacity:1;filter:url(#filter12070);stroke-miterlimit:4;stroke-dasharray:none" d="m 258.72964,121.98264 -16.80387,0.56013" id="path8907" inkscape:connector-curvature="0" sodipodi:nodetypes="cc"/>
  <path style="fill:none;fill-rule:evenodd;stroke:#141400;stroke-width:1.4;stroke-linecap:butt;stroke-linejoin:miter;stroke-opacity:1;filter:url(#filter12066);stroke-miterlimit:4;stroke-dasharray:none" d="m 259.8499,125.90355 -15.68361,-1.68039" id="path8909" inkscape:connector-curvature="0" sodipodi:nodetypes="cc"/>
  <path style="fill:none;fill-rule:evenodd;stroke:#141400;stroke-width:1.4;stroke-linecap:butt;stroke-linejoin:miter;stroke-opacity:1;filter:url(#filter12062);stroke-miterlimit:4;stroke-dasharray:none" d="m 259.8499,129.82445 -11.76271,0" id="path8911" inkscape:connector-curvature="0" sodipodi:nodetypes="cc"/>
  <path style="fill:none;fill-rule:evenodd;stroke:#141400;stroke-width:1.4;stroke-linecap:butt;stroke-linejoin:miter;stroke-opacity:1;filter:url(#filter12058);stroke-miterlimit:4;stroke-dasharray:none" d="m 262.09042,142.14728 -20.16465,-5.60129" id="path8913" inkscape:connector-curvature="0" sodipodi:nodetypes="cc"/>
  <path style="fill:none;fill-rule:evenodd;stroke:#141400;stroke-width:1.4;stroke-linecap:butt;stroke-linejoin:miter;stroke-opacity:1;filter:url(#filter12054);stroke-miterlimit:4;stroke-dasharray:none" d="m 256.48913,118.14084 -8.96207,2.24051" id="path8905-2" inkscape:connector-curvature="0" sodipodi:nodetypes="cc"/>
  <path style="fill:none;fill-rule:evenodd;stroke:#141400;stroke-width:1.4;stroke-linecap:butt;stroke-linejoin:miter;stroke-opacity:1;filter:url(#filter12050);stroke-miterlimit:4;stroke-dasharray:none" d="m 258.72964,125.98264 -16.80387,0.56013" id="path8907-7" inkscape:connector-curvature="0" sodipodi:nodetypes="cc"/>
  <path style="fill:none;fill-rule:evenodd;stroke:#141400;stroke-width:1.4;stroke-linecap:butt;stroke-linejoin:miter;stroke-opacity:1;filter:url(#filter12046);stroke-miterlimit:4;stroke-dasharray:none" d="m 259.8499,129.90355 -15.68361,-1.68039" id="path8909-0" inkscape:connector-curvature="0" sodipodi:nodetypes="cc"/>
  <path style="fill:none;fill-rule:evenodd;stroke:#141400;stroke-width:1.4;stroke-linecap:butt;stroke-linejoin:miter;stroke-opacity:1;filter:url(#filter12042);stroke-miterlimit:4;stroke-dasharray:none" d="m 259.8499,133.82445 -11.76271,0" id="path8911-9" inkscape:connector-curvature="0" sodipodi:nodetypes="cc"/>
  <path style="fill:none;fill-rule:evenodd;stroke:#141400;stroke-width:1.4;stroke-linecap:butt;stroke-linejoin:miter;stroke-opacity:1;filter:url(#filter12038);stroke-miterlimit:4;stroke-dasharray:none" d="m 262.09042,146.14728 -20.16465,-5.60129" id="path8913-3" inkscape:connector-curvature="0" sodipodi:nodetypes="cc"/>
  <path style="fill:none;fill-rule:evenodd;stroke:#000000;stroke-width:1.4;stroke-linecap:butt;stroke-linejoin:miter;stroke-opacity:1;filter:url(#filter12430);stroke-miterlimit:4;stroke-dasharray:none" d="m 328.18563,159.51128 -6.16142,11.76271 11.20258,-9.52219" id="path12348" inkscape:connector-curvature="0"/>
  <path style="fill:none;fill-rule:evenodd;stroke:#000000;stroke-width:1.4;stroke-linecap:butt;stroke-linejoin:miter;stroke-opacity:1;filter:url(#filter12552);stroke-miterlimit:4;stroke-dasharray:none" d="m 259.8499,124.78329 -12.32284,1.12026 10.64245,3.36077" id="path12434" inkscape:connector-curvature="0"/>
  <path style="fill:none;fill-rule:evenodd;stroke:#141400;stroke-width:1.4;stroke-linecap:butt;stroke-linejoin:miter;stroke-opacity:1;filter:url(#filter11318);stroke-miterlimit:4;stroke-dasharray:none" d="m 303.53996,58.688073 c 0,0 -11.62356,-5.694373 -17.92413,-6.16142 -5.11285,-0.379004 -15.12348,2.80065 -15.12348,2.80065" id="path8871" inkscape:connector-curvature="0" sodipodi:nodetypes="cac"/>
  <path style="fill:none;fill-rule:evenodd;stroke:#141400;stroke-width:1.4;stroke-linecap:butt;stroke-linejoin:miter;stroke-opacity:1;filter:url(#filter11314);stroke-miterlimit:4;stroke-dasharray:none" d="m 295.69815,74.931813 c 0,0 -12.14441,-4.503672 -18.48425,-4.48103 -0.76982,0.0027 -2.24052,0.56013 -2.24052,0.56013" id="path8873" inkscape:connector-curvature="0" sodipodi:nodetypes="cac"/>
  <path style="fill:none;fill-rule:evenodd;stroke:#141400;stroke-width:1.4;stroke-linecap:butt;stroke-linejoin:miter;stroke-opacity:1;filter:url(#filter11762);stroke-miterlimit:4;stroke-dasharray:none" d="m 356.19208,18.918923 -14.00323,-7.84181" id="path8879" inkscape:connector-curvature="0" sodipodi:nodetypes="cc"/>
  <path style="fill:none;fill-rule:evenodd;stroke:#141400;stroke-width:1.4;stroke-linecap:butt;stroke-linejoin:miter;stroke-opacity:1;filter:url(#filter11758);stroke-miterlimit:4;stroke-dasharray:none" d="m 343.86924,23.960083 -15.12348,-7.28168" id="path8881" inkscape:connector-curvature="0" sodipodi:nodetypes="cc"/>
  <path style="fill:none;fill-rule:evenodd;stroke:#141400;stroke-width:1.4;stroke-linecap:butt;stroke-linejoin:miter;stroke-opacity:1;filter:url(#filter11754);stroke-miterlimit:4;stroke-dasharray:none" d="M 372.99595,14.437883 360.11298,6.5960832" id="path8883" inkscape:connector-curvature="0" sodipodi:nodetypes="cc"/>
  <path style="fill:none;fill-rule:evenodd;stroke:#141400;stroke-width:1.4;stroke-linecap:butt;stroke-linejoin:miter;stroke-opacity:1;filter:url(#filter10827);stroke-miterlimit:4;stroke-dasharray:none" d="m 471.57864,63.169103 -6.72155,-10.64245" id="path8885" inkscape:connector-curvature="0" sodipodi:nodetypes="cc"/>
  <path style="fill:none;fill-rule:evenodd;stroke:#141400;stroke-width:1.4;stroke-linecap:butt;stroke-linejoin:miter;stroke-opacity:1;filter:url(#filter10823);stroke-miterlimit:4;stroke-dasharray:none" d="m 446.37284,53.646913 -8.96206,-7.28168" id="path8887" inkscape:connector-curvature="0" sodipodi:nodetypes="cc"/>
  <path style="fill:none;fill-rule:evenodd;stroke:#141400;stroke-width:1.4;stroke-linecap:butt;stroke-linejoin:miter;stroke-opacity:1;filter:url(#filter10819);stroke-miterlimit:4;stroke-dasharray:none" d="M 443.01206,58.127943 434.05,48.045623" id="path8889" inkscape:connector-curvature="0" sodipodi:nodetypes="cc"/>
  <path style="fill:none;fill-rule:evenodd;stroke:#141400;stroke-width:1px;stroke-linecap:butt;stroke-linejoin:miter;stroke-opacity:1;filter:url(#filter11310)" d="m 806.42426,300.45052 c 0,0 -11.92549,-1.51527 -17.92412,-1.68038 -4.8562,-0.13366 -14.56335,0.56013 -14.56335,0.56013" id="path8869-8" inkscape:connector-curvature="0" sodipodi:nodetypes="cac" transform="matrix(0.98480775,0.17364818,-0.17364818,0.98480775,-428.71349,-380.33579)"/>
  <path style="fill:none;fill-rule:evenodd;stroke:#141400;stroke-width:1.4;stroke-linecap:butt;stroke-linejoin:miter;stroke-opacity:1;filter:url(#filter11306);stroke-miterlimit:4;stroke-dasharray:none" d="m 804.74388,312.77336 c 0,0 -11.62356,-5.69437 -17.92413,-6.16142 -5.11284,-0.379 -15.12348,2.80065 -15.12348,2.80065" id="path8871-7" inkscape:connector-curvature="0" sodipodi:nodetypes="cac" transform="matrix(0.98480775,0.17364818,-0.17364818,0.98480775,-428.71349,-380.33579)"/>
  <path style="fill:none;fill-rule:evenodd;stroke:#141400;stroke-width:1.4;stroke-linecap:butt;stroke-linejoin:miter;stroke-opacity:1;filter:url(#filter11302);stroke-miterlimit:4;stroke-dasharray:none" d="m 796.90207,329.0171 c 0,0 -12.14441,-4.50367 -18.48425,-4.48103 -0.76982,0.003 -2.24052,0.56013 -2.24052,0.56013" id="path8873-9" inkscape:connector-curvature="0" sodipodi:nodetypes="cac" transform="matrix(0.98480775,0.17364818,-0.17364818,0.98480775,-428.71349,-380.33579)"/>
  <path style="fill:none;fill-rule:evenodd;stroke:#141400;stroke-width:1.4;stroke-linecap:butt;stroke-linejoin:miter;stroke-opacity:1;filter:url(#filter11750);stroke-miterlimit:4;stroke-dasharray:none" d="M 861.396,267.00421 847.39277,259.1624" id="path8879-9" inkscape:connector-curvature="0" sodipodi:nodetypes="cc" transform="matrix(0.98480775,0.17364818,-0.17364818,0.98480775,-436.46565,-392.74003)"/>
  <path style="fill:none;fill-rule:evenodd;stroke:#141400;stroke-width:1.4;stroke-linecap:butt;stroke-linejoin:miter;stroke-opacity:1;filter:url(#filter11746);stroke-miterlimit:4;stroke-dasharray:none" d="m 849.07316,272.04537 -15.12348,-7.28168" id="path8881-2" inkscape:connector-curvature="0" sodipodi:nodetypes="cc" transform="matrix(0.98480775,0.17364818,-0.17364818,0.98480775,-436.46565,-392.74003)"/>
  <path style="fill:none;fill-rule:evenodd;stroke:#141400;stroke-width:1.4;stroke-linecap:butt;stroke-linejoin:miter;stroke-opacity:1;filter:url(#filter11742);stroke-miterlimit:4;stroke-dasharray:none" d="m 878.19987,262.52317 -12.88297,-7.8418" id="path8883-2" inkscape:connector-curvature="0" sodipodi:nodetypes="cc" transform="matrix(0.98480775,0.17364818,-0.17364818,0.98480775,-436.46565,-392.74003)"/>
  <path style="fill:none;fill-rule:evenodd;stroke:#141400;stroke-width:1.4;stroke-linecap:butt;stroke-linejoin:miter;stroke-opacity:1;filter:url(#filter10827-6);stroke-miterlimit:4;stroke-dasharray:none" d="m 477.57864,65.169103 -6.72155,-10.64245" id="path8885-2" inkscape:connector-curvature="0" sodipodi:nodetypes="cc"/>
  <path style="fill:none;fill-rule:evenodd;stroke:#141400;stroke-width:1.4;stroke-linecap:butt;stroke-linejoin:miter;stroke-opacity:1;filter:url(#filter10823-7);stroke-miterlimit:4;stroke-dasharray:none" d="m 452.37284,55.646913 -8.96206,-7.28168" id="path8887-9" inkscape:connector-curvature="0" sodipodi:nodetypes="cc"/>
  <path style="fill:none;fill-rule:evenodd;stroke:#141400;stroke-width:1.4;stroke-linecap:butt;stroke-linejoin:miter;stroke-opacity:1;filter:url(#filter10819-8);stroke-miterlimit:4;stroke-dasharray:none" d="M 449.01206,60.127943 440.05,50.045623" id="path8889-3" inkscape:connector-curvature="0" sodipodi:nodetypes="cc"/>
  <path style="fill:none;fill-rule:evenodd;stroke:#000000;stroke-width:1px;stroke-linecap:butt;stroke-linejoin:miter;stroke-opacity:1;filter:url(#filter12184)" d="m 313.62228,45.805113 -32.48748,-3.36078 25.76593,11.20258" id="path12078" inkscape:connector-curvature="0"/>
  <path style="fill:none;fill-rule:evenodd;stroke:#000000;stroke-width:1.4;stroke-linecap:butt;stroke-linejoin:miter;stroke-opacity:1;filter:url(#filter12258);stroke-miterlimit:4;stroke-dasharray:none" d="M 383.07827,14.437883 359.55285,4.3555632 377.47698,21.159433" id="path12188" inkscape:connector-curvature="0"/>
  <path style="fill:none;fill-rule:evenodd;stroke:#000000;stroke-width:1.4;stroke-linecap:butt;stroke-linejoin:miter;stroke-opacity:1;filter:url(#filter12344);stroke-miterlimit:4;stroke-dasharray:none" d="M 367.39466,31.241753 333.78692,7.7163432 355.07182,30.121503" id="path12262" inkscape:connector-curvature="0"/>
  <path style="fill:none;fill-rule:evenodd;stroke:#000000;stroke-width:1.4;stroke-linecap:butt;stroke-linejoin:miter;stroke-opacity:1;filter:url(#filter12728);stroke-miterlimit:4;stroke-dasharray:none" d="M 508.55513,77.487744 502.218,62.437047 505.38657,76.695602" id="path12594" inkscape:connector-curvature="0"/>
  <path style="fill:#232018;fill-opacity:1;fill-rule:evenodd;stroke:#000000;stroke-width:1px;stroke-linecap:butt;stroke-linejoin:miter;stroke-opacity:1" d="m 2.7507081,276.57823 c -0.56013,-5.60129 -4.41459,-1.01203 -0.56013,-5.60129 3.85446,-4.58926 10.7769899,1.46048 30.2469699,-2.24051 19.46998,-3.70099 58.82407,-17.38329 84.579472,-26.32606 25.7554,-8.94277 49.74419,-15.3331 70.01612,-26.88619 20.27193,-11.55309 39.99344,-29.51378 50.97173,-40.32929 10.97829,-10.81551 15.13195,-14.44395 17.364,-21.2849 2.23205,-6.84095 -0.8197,-8.2059 -0.84019,-15.68361 -0.0205,-7.47771 -2.16011,-18.99175 1.40032,-29.1267 3.56043,-10.134947 23.52541,-29.126707 23.52541,-29.126707 0,0 14.21319,-30.76798 26.32606,-42.00967 8.50915,-7.89716 20.13027,-11.68567 30.8071,-16.24374 11.4033,-4.8682 22.89126,-11.9921998 35.28812,-11.7627098 9.56985,0.1771598 18.51505,5.4414898 26.88619,10.0823198 9.66754,5.35954 19.13548,11.76931 26.32606,20.16465 3.04368,3.55364 2.61742,10.07595 6.72155,12.32283 7.05934,3.86477 14.36586,-3.34747 21.2849,-1.68038 5.54141,1.33516 9.17084,7.11522 14.56335,8.96206 8.17318,2.79918 18.05784,-1.10085 25.76593,2.80064 2.71182,1.3726 3.50662,5.24166 6.16142,6.72155 3.48631,1.9434 8.78329,-0.41545 11.76269,2.24052 2.3363,2.08267 2.8007,8.96206 2.8007,8.96206 l 14.5633,8.96206 c 0,0 9.6692,13.022077 13.4431,20.164647 4.4219,8.3689 12.157,16.98273 10.6425,26.32606 -1.0596,6.53696 -6.71343,12.71702 -12.883,15.12348 -4.30833,1.68048 -13.77126,-1.68039 -13.77126,-1.68039 l -4.94498,1.55031 3.03264,-5.47121 -5.6013,0 -0.92807,3.42872 -2.43273,3.85295 c 0,0 -6.8284,1.42133 -10.0823,0.56013 -6.65877,-1.76235 -10.88463,-8.86531 -17.364,-11.20258 -4.4223,-1.59524 -9.32042,-2.09617 -14.00322,-1.68038 -7.00078,0.62161 -13.78475,3.21281 -20.16465,6.16142 -5.03056,2.32498 -12.15579,3.73721 -14.00322,8.96206 -0.98413,2.78327 1.10152,5.98779 2.80065,8.40193 1.91332,2.71845 4.64485,5.25023 7.8418,6.16142 3.25195,0.92686 6.7176,-1.45624 10.08232,-1.12026 4.87666,0.48695 14.00323,4.48104 14.00323,4.48104 l -0.56013,5.04116 -17.92413,5.60129 -16.24374,-2.80065 -11.76271,-10.08232 -3.36077,0.56013 -1.68039,7.8418 -1.12026,8.40193 19.60452,9.5222 -4.48103,3.36077 -8.40194,1.12026 -19.60451,-8.40194 c 0,0 0.0747,-13.06318 0.56013,-19.04438 0.4854,-5.9812 2.24051,-16.80387 2.24051,-16.80387 l -10.08232,0.56013 -26.88619,0.56013 c 0,0 -6.65183,15.08817 -11.95491,21.2451 -1.79977,2.08955 -6.52934,5.08096 -6.52934,5.08096 l -2.80065,7.28168 12.88297,7.28168 22.40516,1.68038 15.68361,-3.36077 10.64245,3.9209 -5.04116,4.48104 -10.64246,1.12025 3.92091,4.48103 -34.16787,0 -16.80386,-3.36077 -7.84181,-4.48103 -12.32283,-4.48103 2.24051,-5.60129 3.9209,-17.92413 -8.40193,-11.76271 -26.32606,-2.80064 -17.364,9.52219 -1.12026,12.32284 9.52219,12.32283 14.56336,-0.56013 14.00322,5.04116 2.80065,8.96207 -32.48748,2.24051 c 0,0 -9.37915,-5.07763 -12.88297,-8.96206 -5.42953,-6.01932 -10.09587,-13.35183 -11.76271,-21.2849 -1.27216,-6.05462 1.68039,-18.48425 1.68039,-18.48425 0,0 -36.95327,38.44308 -50.97173,49.29134 -14.01846,10.84826 -19.20811,13.00855 -30.24697,18.48426 -11.03886,5.47571 -20.66274,8.98227 -35.84825,14.00322 -15.18551,5.02095 -38.8394,10.43999 -55.452772,15.12348 -16.61337,4.68349 -28.31043,9.98176 -44.25018,12.88297 -15.93975,2.90121 -50.7290199,6.3481 -50.9717399,3.9209 z" id="path8847" inkscape:connector-curvature="0" sodipodi:nodetypes="szzzzzzzzcssssssaaaaaccaaaccccccaaaaaaaacccccccccccczcccsccccccccccccccccccccccccssczzzzzs"/>
  <path style="fill:none;fill-rule:evenodd;stroke:#141400;stroke-width:1.4;stroke-linecap:butt;stroke-linejoin:miter;stroke-opacity:1;filter:url(#filter13166);stroke-miterlimit:4;stroke-dasharray:none" d="m 547.19608,125.90355 c 0,0 9.82231,-8.57197 15.6836,-11.20258 3.84304,-1.72479 12.3228,-2.80065 12.3228,-2.80065" id="path8853" inkscape:connector-curvature="0" sodipodi:nodetypes="cac"/>
  <path style="fill:none;fill-rule:evenodd;stroke:#141400;stroke-width:1.4;stroke-linecap:butt;stroke-linejoin:miter;stroke-opacity:1;filter:url(#filter13162);stroke-miterlimit:4;stroke-dasharray:none" d="m 542.15488,116.94148 c 0,0 9.70965,-9.11392 15.6836,-11.76271 5.3894,-2.3896 17.364,-3.36077 17.364,-3.36077" id="path8855" inkscape:connector-curvature="0" sodipodi:nodetypes="cac"/>
  <path style="fill:none;fill-rule:evenodd;stroke:#141400;stroke-width:1.4;stroke-linecap:butt;stroke-linejoin:miter;stroke-opacity:1;filter:url(#filter13158);stroke-miterlimit:4;stroke-dasharray:none" d="m 548.31628,131.50483 c 0,0 8.77917,-2.43909 12.883,-1.12025 3.27765,1.05334 7.8418,6.72154 7.8418,6.72154" id="path8857" inkscape:connector-curvature="0" sodipodi:nodetypes="cac"/>
  <path style="fill:none;fill-rule:evenodd;stroke:#141400;stroke-width:1.4;stroke-linecap:butt;stroke-linejoin:miter;stroke-opacity:1;filter:url(#filter13154);stroke-miterlimit:4;stroke-dasharray:none" d="m 543.83528,137.66625 c 0,0 11.41512,3.9855 15.1235,8.40194 3.30336,3.9341 5.0411,14.56335 5.0411,14.56335" id="path8859" inkscape:connector-curvature="0" sodipodi:nodetypes="cac"/>
  <path style="fill:none;fill-rule:evenodd;stroke:#141400;stroke-width:1.4;stroke-linecap:butt;stroke-linejoin:miter;stroke-opacity:1;filter:url(#filter13150);stroke-miterlimit:4;stroke-dasharray:none" d="m 536.55358,143.26754 c 0,0 6.6949,17.61982 7.2817,26.88619 0.4289,6.7725 -9.4626,18.87313 -2.8006,20.16464" id="path8861" inkscape:connector-curvature="0" sodipodi:nodetypes="cac"/>
  <path style="fill:none;fill-rule:evenodd;stroke:#141400;stroke-width:1.4;stroke-linecap:butt;stroke-linejoin:miter;stroke-opacity:1;filter:url(#filter13146);stroke-miterlimit:4;stroke-dasharray:none" d="m 529.27188,141.58716 c 0,0 4.81488,16.11073 3.3608,24.08554 -1.25894,6.90456 -10.0823,18.48426 -10.0823,18.48426" id="path8863" inkscape:connector-curvature="0" sodipodi:nodetypes="cac"/>
  <path style="fill:none;fill-rule:evenodd;stroke:#141400;stroke-width:1.4;stroke-linecap:butt;stroke-linejoin:miter;stroke-opacity:1;filter:url(#filter13142);stroke-miterlimit:4;stroke-dasharray:none" d="m 539.91438,141.02703 c 0,0 11.76841,10.21779 15.6836,16.80386 4.22386,7.10532 7.8418,23.52542 7.8418,23.52542" id="path8865" inkscape:connector-curvature="0" sodipodi:nodetypes="cac"/>
  <path style="fill:none;fill-rule:evenodd;stroke:#141400;stroke-width:1.4;stroke-linecap:butt;stroke-linejoin:miter;stroke-opacity:1;filter:url(#filter13138);stroke-miterlimit:4;stroke-dasharray:none" d="m 549.43658,128.14406 c 0,0 6.81341,-8.60828 11.7627,-10.08232 4.15054,-1.23614 12.883,1.68039 12.883,1.68039" id="path8867" inkscape:connector-curvature="0" sodipodi:nodetypes="cac"/>
  <path style="fill:none;fill-rule:evenodd;stroke:#141400;stroke-width:1.4;stroke-linecap:butt;stroke-linejoin:miter;stroke-opacity:1;filter:url(#filter11862);stroke-miterlimit:4;stroke-dasharray:none" d="m 439.09116,147.74857 7.28168,6.72155" id="path8899" inkscape:connector-curvature="0" sodipodi:nodetypes="cc"/>
  <path style="fill:#03040c;fill-opacity:1;fill-rule:evenodd;stroke:none;stroke-width:1px;stroke-linecap:butt;stroke-linejoin:miter;stroke-opacity:1" d="m 521.17181,99.227851 c 0.41862,-1.822401 2.57231,-2.115495 4.52252,-2.177492 1.95012,-0.06196 5.53743,0.809638 6.19745,2.512495 0.66003,1.702876 -0.58342,2.937136 -1.8425,3.852476 -1.25908,0.91535 -3.28347,1.37339 -5.02499,0.67002 -1.74147,-0.7034 -4.27105,-3.03508 -3.85248,-4.857499 z" id="path13747" inkscape:connector-curvature="0" sodipodi:nodetypes="zzzzzz"/>
</svg>